<svg xmlns="http://www.w3.org/2000/svg" viewBox="0 0 48 48" width="48" height="48">
  <rect width="48" height="48" rx="10" fill="#131820"/>
  <g transform="translate(0,2)">
    <!-- bottom plate -->
    <path d="M8 30 L16 23 L32 23 L40 30 L40 33.6 L32 26.6 L16 26.6 L8 33.6 Z" fill="#ffffff" opacity="0.16"/>
    <path d="M8 30 L16 23 L32 23 L40 30 L32 37 L16 37 Z" fill="#ffffff" opacity="0.26"/>
    <!-- mid plate -->
    <path d="M8 22 L16 15 L32 15 L40 22 L40 25.6 L32 18.6 L16 18.6 L8 25.6 Z" fill="#ffffff" opacity="0.34"/>
    <path d="M8 22 L16 15 L32 15 L40 22 L32 29 L16 29 Z" fill="#ffffff" opacity="0.52"/>
    <!-- top plate (live green) -->
    <path d="M8 14 L16 7 L32 7 L40 14 L40 17.6 L32 10.6 L16 10.6 L8 17.6 Z" fill="#1f9d57" opacity="0.6"/>
    <path d="M8 14 L16 7 L32 7 L40 14 L32 21 L16 21 Z" fill="#1f9d57"/>
  </g>
</svg>
